<?xml version="1.0" encoding="UTF-8"?>
<svg id="Layer_1" data-name="Layer 1" xmlns="http://www.w3.org/2000/svg" viewBox="0 0 1024 1024">
  <path d="M722.39,681.21c-4.72-9.58-11.63-21.21-23.9-17.39-.82-13.34-15.72-24.08-28.06-26.5-2.16-.42-4.85,1.48-9.05.47-9.42-2.26-25.56-17.41-33.1-22.62-3.57-2.47-10.61-8.74-14.67-8.28-1.27.15-2.34,2.43-4.57,2.15-8.57-1.06-21.17-15.81-23.52-23.72-1.53-5.16,7.48,1.93,5.02-3.32-.69-1.47-3.74-3.27-5.1-5.1-4.36-5.84-3.77-3.99-7.37-7.67-4.45-4.56-9.45-8.73-12.8-14.26l5.05-.85-28.78-24.33c-13-2.93-24.39-13.32-38.77-8.64-2.38.77-21.37,12.97-22.98,14.95-3,3.71-2.55,10.36-8.72,11.54l1.47,6.52,3.34-1.71v5.07s-5.05.01-5.05.01c3.51,7.55-2.22,11.15-.19,17.59l-1.49,1.86-4.79-.67-.31,3.14c-2.65.18-1.72-3.7-5.4-5.52-3.62-1.79-8.26-1.16-12.19-1.32-.81,9.12-9.86,4.96-16.06,7.75-5.8,2.6-17.85,14.83-23.09,17.54-3.67,1.9-6.65-.6-8.92.91-9.59,6.38-19.19,15.08-24.6,24.38-4.2,7.22-8.66,5.46-13.78,8.21-7.04,3.78-12.63,8.44-21.53,10.52-5.5,1.29,1.85-7.45-3.37-5.07-3.1,1.41-8.59,6.32-11.86,8.4l-.82-6.72c-7.68-1.12-8.92,9.19-16.85,8.44.82,3.25,7.14,1.13,10.51,2.11,2.52.73,4.78,3.14,7.89,3.9,11.89,2.88,21.92-1.62,31.77-5.57,15.61-6.26,12.54,2.4,19.46,7.46,2.36,1.73,7.5,1.21,9.59,4.76,1.26,3.27-6.7,3.74-8.03,3.75-4.48.03-7.41-1.58-12.59-.89-15.17,2.02-15.6,11.09-24.03,19.91-4.78,5-11.04,8.77-15.06,13.61-15.53,18.73-25.82,59.64-17.68,82.89.32.91,6.09,6.86,6.42,7.76,4.24,11.5-1.08,23.16-1.58,34.83-.37,8.66,1.61,16.37.93,24.76,4.9,3.59,10.73,14.69,14.43,17.38,5.58,4.06,9.32.65,11.63,12,8.9-2.39,13.7,2.78,20.31,4.97,7.02,2.32,16.63,4.43,23.07,7.29,3.27,1.45,6.55,6.43,9.78,6.46,3.4.03,8.3-5.51,10.14-5.59,1.74-.07,4.19,2.88,6.78,2.83,3.1-.06,4.06-3.38,5.84-4.14,1.54-.66,3.86,1.1,4.73.53.97-.63,1.25-4.46,3.61-5.6,4.44-2.14,13.07,2.28,14.11,2.15.91-.11,12.12-6.07,13.04-7.22,2.56-3.16,1.96-7.51,3.35-9.73,1.02-1.63,3.02-1.91,3.92-3.17,1.91-2.67,4-11.72,9.6-7.5,2.84,2.14-.19,9.3,4.11,7.66,6.12-3.37,2.62-9.54,5.9-14.34,6.07-5.29,20.45,4.26,20.28-9.28l6.81,1.02,1.62-6.06,4.33,5.19c8.51-1.91,9.06-8.75,12.03-14.9.92-1.91,3.1-1.86,3.73-3.41,1.26-3.09,2.49-20.73,6.03-20.59,3.99,9.32,8.62,5.76,13.86,7.85,2.64,1.05,3.21,6.62,9.73,5.64l.88-5.08,1.8,3.15,6.62-.77,5.9,9.39,5.88-5.03c-1.45,7.24,7.17,8.63,9.15,11.77.71,1.12,2.28,11.48,1.78,13.54.6,1.09,7.63,1.27,8.57,1.08,2.83-.57.97-6.01,5.8-4.47.69,5.73,1.59,9.99-1.68,15.17,14.99.38,7.56,4.76,10.94,11.86,1.24,2.6,8.33,5.07,10.16,8.39l4.18-3.35c-.45,4.95-.15,8.91,4.26,11.79l3.31-3.37c4.97,4.56,16.55,4.07,20.29-1.66l3.33,3.37,5.79-3.61-1.56-6.51c7.74-2.33,11.66,2.76,20.65-.15,1.36-.44,1.1-2.51,2.55-3.12,5.29-2.23,9.12.6,13.09-8.54l2.53,6.73c2.75.46,2.08-4.57,4.23-5.07,1.93-.45,8.12,7.7,11.85-.06,1.13-2.36-.49-4.9-.16-5.83,1.21-3.4,6.23-9.81,7.03-11.53,7.49-16.03,5.55-24.7-.04-39.9-.61-1.66,1.13-4.45.63-4.93-1.27-1.22-9.15-1.6-9.84-9.47l6.51-5.04-5.05-2.52c2.89-4.54.89-9.98,5.06-10.95-10.8-6.52-3.46-4.3-.54-6.34,1.39-.98,2.98-5.19,5.5-7.3,2.28-1.91,6.26-2.24,6.6-2.62,1.09-1.22-.31-7.74.32-10.66,4.88-22.47.53-41.63-9.9-62.79Z"/>
  <path d="M521.11,364.67c3.46,8.32,11.35,10.62,12.15,19.07l5.03-3.37c-4.16,13.21,10.16,25.69,15.21,37.11,5.59-8.52,5.58-3.18,10.83-3.3.66-.02,2.51-6.62,11.15-2.45l1.63-6.05,1.67,5.07,7.59-3.36c2.94,7.75,11.59,7.09,18.6,5.23,2.94-.78,2.51-3.33,3.22-3.34,9.3-.07,14.11,3.55,24.79-2.07,4.97-2.61,5.91-8.68,6.36-9.05,2.55-2.05,11.25.33,8.58-9.38,2.32,1.13,3.91,1.24,6.44.69,1.12-.25,18.52-9.64,19.65-10.8,1.69-1.74,6.59-9.95,5.86-12.43-.47-1.61-3.13-.9-3.28-1.1-.69-.91,2.78-2.76,3.1-4.47.2-1.08-4.4-9.4-3.21-14.86l5.14-4.25-8.41,1.67,3.31-4.14-6.66-6-.02-3.35,3.34,1.71c2.39-4.9-1.17-5.61-1.46-9.98l3.15-.99c-1.64-3.87-6.91-2.46-8.03-3.12-1.93-1.14-7.15-7.13-8.96-8.57-1.25-1-3.33-1.02-4.93-1l5.05-3.37-5.05-1.69,1.68-21.91,6.76-.02c-4.44-7.18-.49-11.94.86-17.75.61-2.64-3.41-5.29,2.5-6.62-2.95-4.79-4.11-12.14-4.21-17.73-.05-2.6,2.44-3.88,2.41-4.29-.04-.72-9.41-8.86-11.58-7.71l1.59-3.21c-3.13.33-5.65.2-5.09-3.39l-2.49,3.35c-4.01-2.82-4.01-4.75-2.5-9.22l-5.09-.91c-.74-2.89,3.11-.67,3.35-2.66.3-2.45.01-10.41-3.27-9.86l1.6-14.45c5.22-2.02,4.35,3.68,7.53,3.54,3.72-.16,5.94-2.91,9.31-3.57-1.92-3.18-6.11-.72-6.73-6.71l5.81,1.79.99-2.34,1.64,2.22c6.4-2.73,2.6-8.66-3.37-5.06-.88-2.37,2.42-6.94,1.53-8.2-.63-.89-4.97-.95-4.92-3.59l6.73,1.67-3.35-5.04,4.92-.11c1.33-12.11-3.09-21.76-14.16-26.94-16.07-7.52-18.88-3.63-34.23-.43-4.65.97-9.31-.14-13.95,1.23-10.03,2.96-19.95,17.31-29.45,21.16-5.03,2.04-1.27-12.21-2.51-13.47-16.78,3.47-22.06,19.41-21.89,35.42l8.4-2.55c-.79,7-8.6,11.89-10.52,16.47-9.36,22.34.45,53.41-4.69,77.67-.13.6-5.74,5.94-7.55,9.62-12.35,25.07-10.84,33.38-9.8,60.1.38,9.74-2.76,14.24,1.89,25.44Z"/>
  <path d="M802.76,515.9c6.91-10.82,11.13-25.83,9.82-38.29-.19-1.83-2.69-13.65-3.13-14.24-.8-1.07-15.23-5.36-17.35-8.8-5.54-8.95,1.93-17.14.67-20.86-.66-1.96-3.8-2.24-4.38-3.24-1.42-2.46-1.14-5.59-3.09-7.9-.58-.69-13.42-10.29-14.44-10.86-8.01-4.52-28.05-3.51-36.48.35-1.6.73-16.57,10.3-17.47,11.21-2.52,2.54-10.28,16.2-12.12,17.39-.64.41-13.49,5.07-14.24,5.17-9.28,1.33-10.99-5.99-17.19-7.34-5.08-1.1-19.97-3.33-15.05,4.84,5.59,9.27,20.11-.05,30.07,4.53,1.85,7.28-5.59,5.73-11.3,8.1-7.86,3.27-22.34,10.57-28.69,15.99-2.76,2.36-7.58,11.73-11.79,12.83-6.2,1.63-8.22-9.07-13.91-10.93-6.31-2.06-11.25,2.92-16.93-.7l.1,6.58c9.57,4.18,38.53,4.94,20.94,18.71l-4.21-6.73c-2.77-.73-.77,2.93-2.75,3.4-2.63.63-6.18-.41-9.03-.03-1.39,6.32,6.38,1.67,10.15,4.16,5.17,8.15-6.71,12.76-13.53,11.03v1.65c4.96-.73,3.29,3.75,3.47,7.57l-5.17.9c1.85,5.25,1.65,11.32-1.75,15.95-1.4,1.9-6.16,1.4-4.79,6.52,7.37,6.73,13.61,20.16,21.63,25.7,9.93,6.87,8.79,2.41,18.74,13.31,9.36,10.25,27.47,7.04,34.95,11.43,1.19.7.81,4.17,5,5.95,3.17,1.35,10.97,3.63,13.91,2.11l-1.67,5.04,6.73-3.37.03,5.07c14.31-4.69,13.63,5.16,20.23,12.71,5.08,5.81,12.67,10.52,20.67,8.82,2.23-.47,19.68-8.99,20.94-10.23,3.81-3.77,2.84-14.56,5.86-19.42l6.46-.29-1.67,13.48c6.73,4.71,30.53-20.53,30.31-22.78-.23-2.34-9.07-1.27-6.84-7.44l-8.3-.15c-1.12-2.69,1.56-5.44,1.69-6.74-1.73,1.87-7.46.58-5.07,10.12-5.4-3.51-1.2-13.5-5.02-20.24h10.09c-.21,3.31.35,6.84,0,10.12,2.62-2.83,2.05-6.73,6.73-6.78v-3.34s-5.03,1.68-5.03,1.68c-2.91-6.57,3.35-8.94,3.43-9.5.89-6.69-5.07-9.62-5.17-10.22-.18-1.03,1.65-14.52,2.1-16.17,1.83-6.68,9.23-10.17,12.84-15.83ZM748.17,459.14c-2.52-.49-5.83-6.5-8.34-8.03-2.84-1.73-9.41.75-10.99-4.93l6.74,1.66.83-5.04,7.59,8.42,1.56-6.51-4.91-3.59c5.69-2.82,9.69,7.64,7.94,9.83-.56.7-3.37-.43-2.88,1.11l6.73,5.89-4.26,1.19Z"/>
  <path d="M339.06,327.45c2.25,4.28,1.3,10.18.58,14.75l2.37,2.66,6.51-1.44,2.64,4.87,2.5.04c1.52-5.86,4.57-1.8,9.09-3.26l1.89,8.29c8.92-5.72,8.44-.95,12.67,1.25,4,2.08,4.77-5.74,6.71-1.26,1.08,2.51.95,5.81,2.52,8.43l-8.42.85,10.11,4.24-5.05,8.43,3.38-.84-1.71,5.87,5.14-.89c4.11,4.42,3.4,10.45,3.29,16.08,5.68,1.15,2.93-7.91,7.59-10.11l1.69,6.73c1.68-7.06,2.96.04,7.14,1.32,1.98.61,4.93-1.12,7.17.39l.03-6.77,1.67,3.35,3.35-.02.29-3.08,5.52,1.49,2.01-3.53,9.04.08-1.64,5.93c7.12,3.89,1.18-9.11,5.88-10.99,2.44,6.36,11.79,2.45,16.88,6.69,3.43-2.2,1.47-3.55.81-6.62l7.48-1.83,3.29,3.49c25.29-8.33,21.99-39.48,21.17-60.7l-5.98-3.48-4.03,1.71c.58-6.2.33-10.61-5.04-14.34l6.7.84-1.66-8.45,3.35,1.71v-5.07c-3.32-.07-6.01,1.33-5.03-3.38l8.41-.85c-8.65-3.99-8.14-11.83-13.47-18.56l5.03,2.53c-2.73-9.62,2.77-16.24-1.68-25.93l3.37-2.72-5.08-.89,1.57-4.95c-7.52-3.87-2.86-4.06-3.47-6.85-1.21-5.47-6.41-11.33-3.11-17.69l-6.77-.02c.38-5.22,3.71-8.98-1.67-12.65l5.04-.85-3.36-3.34,5.05-.03-3.38-8.41,10.13-1.73c-1.83-6.46-2.91-19.06-7.99-23.67-5.75-5.22-16.58-3.61-19.88-10.08l-4.18.05,1.67,5.04c-7.41-5.94-3.42-1.95-6.21.12-1.47,1.09-5.25.32-7.25,1.57-.97-8.73,1.94-3.68,5.94-3.62,1.9.03,6.2-8.79,4.15-11.55l-6.74,3.38-.8,5.03c-3.82-2.6-3.9-4.25-2.56-8.39l-4.77-.24-.3-4.83c-2.74-.31-1.47,3.09-4.1,4.5-4.92,2.63-17.04-8.56-17.83,2.23l-2.65-3.5-5.75,1.84,6.74,8.39-5.76,1.55-.96,5.22c4.79-4.27,6.87-3.94,6.73,3.35-5.45-.71-6.33,3.18-9.22,6.64l-4.25-1.58,3.35-5.02-6.73-1.73c-.44-.54,8.81-9.28-1.69-10.09l.85,5.03c-7.03-1.93-1.45-7.57-7.62-9.27l3.39-1.68c-1.35-1.33-3.04-1.93-4.46-3.23-1.07-.99.27-3.31-2.26-2.67-2.96,7.24,3.13,10.86-6.77,12.85-1.86.37-4.8-1.73-6.75-.25-3.73,2.81,3.89,5.88-5.13,6.91l-.81,4.16,4.18,1.83-1.47,4.77,3.23,1.77c-9.42-1.86-5.52,3.01-7.09,4.71-.77.83-3.28.07-4.22.74-1.6,1.14-1.11,4.54-2.54,6.01-2.49,2.57-8.62-.31-9.74,2.9,7.45,2.34.33,11.23,1.72,18.16.45,2.24,11.63,6.57,8.4,13.05l11.79-5.06c-4.36,7.52.7,6.19,1.24,7.11,3.24,5.63-5.83,9.38-6.29,10.98-1.29,4.5-1.17,12.44-4.22,17.47l-4.2-.15c-.27,7.07,9.95,7.88,1.67,16.05,8.26,3.47.35,6.13.29,6.66-.24,2.27,1.8,7.45-.3,11.02-4.8-2.29-3.04-10.85-3.37-15.17-8.31,6.48,3.26,20.47,0,30.37l-3.37-10.11c-3.14-.29-.92,3.68-2.13,6.33-.21.47-2.46.52-3.41,2.52-1.06,2.22-3.64,28.66-2.87,29.95.15.25,2.81-2.67,4.77,1.07Z"/>
  <path d="M304.76,574.34c1.42,5.29,6.11,2.34,9.27,5.95l-5.04,1.67c4.76,1.12,16.92,20.76,21.9,16.03l-3.35-15.17c5.56-.7,5.54,6.97,8.38,9.32l2.57.84,1.81-3.52,4.08,1.78-1.7-5.04c17.66-1.5.06-24.82,1.74-32.69.36-1.68,3.16-1.46,4.07-2.71l-.73-3.41,9.91-.22c1.29-1.99,2.13-10.87,2.76-11.74.55-.76,13.93-3.18.83-10.01l3.35-2.5c-5.36-6.95-11.66-13.67-20.79-9.23l-4.47-3.47c4.45-4.46,4.76-7.4,5.03-13.45l-10.11-.02v-8.42c7.65.75,7.2-3.48,0-4.21l8.42-7.59c-14.1,2.84-8.58-2.83-10.54-7.43-.97-2.29-13.59-13.92-17.05-17.27-1.88-1.82-7.4-.44-6.15-7.37l-8.39,5.06c1.96-9.96-8.25-9.4-5.09-16.86-9.93,3.55-5.75-4.57-8.37-7.5-6.64-7.42-37.25-19.54-44.92-12.91-1.95,1.68-1.66,4.86-2.88,6.37-2.23,2.74-11.35,10.79-12.68,12.72-.32.46-.36,10.71-.65,11.18-.56.89-7.06,2.19-4.67,5.32.42.55,4.09-1.3,3.35,1.68-10.55-.8-4.93.92-6.1,5.07-.68,2.4-3.35,4.68-3.67,7.98-.59,6.01,4.82,11.35-3.7,16.5l4.79,1.03c-1.07,10.17,7.25,12.35,8.8,20.83-6.62,2.05-1.84,3.17-1.21,6,.38,1.75-.82,3.97-.22,4.65l2.99.4.02,3.34-11.78,4.3c.73,5.83,1.68,11.48,6.7,15.11l-3.33,2.53-1.68-3.37c1.04,2.79-.39,10.64.14,12.37.38,1.26,2.83,1.11,3.12,2.44,2.15,9.91-1.66,18.95,11.75,22.51-2.5,9.37-.19,4.93,2.74,8.15,1.33,1.46,2.28,4.47,2.82,4.78,1.97,1.15,5.68-.15,6.42.35.42.28-3.51,6.35,2.71,8.35l5.68-3.29,1.73,6.73,1.67-3.35c4.45-1.67,2.61,2.86,4.49,3.36,3.03.8,7.28-.79,10.66,1.68l.03-10.12c6.26,7.6,9.25-3.45,10.66,2.72,6.16-.17,6.9,9.09,12.07,7.39,2.78-.92,2.69-4.24,0-5.04-1.77-.53.5,4.18-2.5,3.36,1.83-4.15-3.46-5.62-3.47-6-.2-6.61,7.37-14.04,13.55-7.48-.16-3.26-.33-8.47,4.23-8.48ZM348.41,533.34c.36.85,4.65.07,1.25,4.81,6.25,1.69,1.95,5.51-1.88,7.55-3.48-5.01-1.64-12.38-6.84-14.53,4.1-12.29,5.03-3.63,7.47,2.17Z"/>
</svg>